<?xml version="1.0" encoding="utf-8"?>
<!-- Generator: Adobe Illustrator 24.1.2, SVG Export Plug-In . SVG Version: 6.00 Build 0)  -->
<svg version="1.1" id="Layer_1" xmlns="http://www.w3.org/2000/svg" xmlns:xlink="http://www.w3.org/1999/xlink" x="0px" y="0px"
	 viewBox="0 0 368.7 367.7" style="enable-background:new 0 0 368.7 367.7;" xml:space="preserve">
<style type="text/css">
	.st0{fill:#BCA473;}
	.st1{opacity:0.18;}
	.st2{fill:#F2F2F2;}
</style>
<g>
	<path class="st0" d="M330.3,204.1L204.4,330c-45.5,45.5-120,45.5-165.5,0l0,0c-45.5-45.5-45.5-120,0-165.5L164.8,38.7
		c45.5-45.5,120-45.5,165.5,0l0,0C375.8,84.2,375.8,158.6,330.3,204.1z"/>
</g>
<g class="st1">
	<path d="M330.3,167.3c0,0,29.2-54.4,17.1-89c-0.2-0.5-4.4-11.7-4.4-11.7c0,0,0,0,0,0c0,0,0,0,0,0c-4.9-12.2-9.6-21.8-12.8-28l0,0
		c2.8,2.8,5.5,5.8,8,8.9c37.3,45.8,34.7,113.9-8,156.6L204.4,330c-45.5,45.5-120,45.5-165.5,0l0,0c-5.2-5.2-11.2-12.1-16.7-21.1
		c-3.6-5.8-6.3-11.4-8.4-16.4c7.6,9.6,20.6,23.7,40.5,35.2c0,0,31,18,70,19.5C181.3,347.3,314.7,196.4,330.3,167.3z"/>
</g>
<path class="st2" d="M201.9,263.8L73.3,229.3c-4.3-1.1-6.8-5.5-5.7-9.8v0c1.1-4.3,5.5-6.8,9.8-5.7L206,248.3
	c4.3,1.1,6.8,5.5,5.7,9.8v0C210.5,262.3,206.1,264.9,201.9,263.8z"/>
<path class="st2" d="M278.3,207.1L95.8,158.2c-4.3-1.1-6.8-5.5-5.7-9.8v0c1.1-4.3,5.5-6.8,9.8-5.7l182.6,48.9
	c4.3,1.1,6.8,5.5,5.7,9.8v0C287,205.7,282.6,208.3,278.3,207.1z"/>
<path class="st2" d="M300.8,136.1l-128.5-34.4c-4.3-1.1-6.8-5.5-5.7-9.8l0,0c1.1-4.3,5.5-6.8,9.8-5.7L305,120.6
	c4.3,1.1,6.8,5.5,5.7,9.8v0C309.5,134.6,305.1,137.2,300.8,136.1z"/>
</svg>
