<?xml version="1.0" encoding="utf-8"?>
<!-- Generator: Adobe Illustrator 24.1.2, SVG Export Plug-In . SVG Version: 6.00 Build 0)  -->
<svg version="1.1" id="Layer_1" xmlns="http://www.w3.org/2000/svg" xmlns:xlink="http://www.w3.org/1999/xlink" x="0px" y="0px"
	 viewBox="0 0 368.7 367.7" style="enable-background:new 0 0 368.7 367.7;" xml:space="preserve">
<style type="text/css">
	.st0{fill:#BCA473;}
</style>
<g>
	<path class="st0" d="M330.3,38.7L330.3,38.7c-45.5-45.5-120-45.5-165.5,0L38.9,164.5c-45.5,45.5-45.5,120,0,165.5l0,0
		c45.5,45.5,120,45.5,165.5,0l125.9-125.9C375.8,158.6,375.8,84.2,330.3,38.7z M211.7,258.1c-1.1,4.3-5.5,6.8-9.8,5.7L73.3,229.3
		c-4.3-1.1-6.8-5.5-5.7-9.8s5.5-6.8,9.8-5.7L206,248.3C210.2,249.4,212.8,253.8,211.7,258.1z M288.1,201.5c-1.1,4.3-5.5,6.8-9.8,5.7
		L95.8,158.2c-4.3-1.1-6.8-5.5-5.7-9.8h0c1.1-4.3,5.5-6.8,9.8-5.7l182.6,48.9C286.7,192.8,289.3,197.2,288.1,201.5z M310.6,130.4
		c-1.1,4.3-5.5,6.8-9.8,5.7l-128.5-34.4c-4.3-1.1-6.8-5.5-5.7-9.8c1.1-4.3,5.5-6.8,9.8-5.7L305,120.6
		C309.2,121.7,311.7,126.1,310.6,130.4z"/>
</g>
</svg>
